<svg width="64" height="64" viewBox="0 0 64 64" fill="none" xmlns="http://www.w3.org/2000/svg">
<rect width="64" height="64" fill="#0D0D0D"/>
<g clip-path="url(#clip0_401_96)">
<path d="M32.0274 12.7477C36.0055 17.8181 38.1291 24.0706 38.0521 30.4865V32.018L39.3646 32.8198C41.0604 33.8505 42.3252 35.4491 42.9284 37.3243C42.3988 36.9329 41.8447 36.5748 41.2696 36.2523L37.7695 34.2793L37.1406 38.2613C37.0862 38.6131 37.0131 38.962 36.9219 39.3063H27.1146C26.9688 38.8559 26.8503 38.4054 26.7409 37.9369L25.9479 34.3333L22.7214 36.1351C22.1823 36.4378 21.6619 36.7717 21.1628 37.1351C21.7777 35.2816 23.0161 33.692 24.6719 32.6306L25.9206 31.8288V30.4054C25.9431 24.0156 28.0923 17.8106 32.0365 12.7477H32.0274ZM32.0365 9C31.8319 9.0005 31.6345 9.07409 31.4805 9.20721L31.3985 9.27928C26.1426 15.0894 23.2241 22.6025 23.1953 30.3964C20.965 31.8267 19.3141 33.9861 18.531 36.4974C17.748 39.0086 17.8826 41.712 18.9115 44.1351C19.9953 41.7692 21.8071 39.8019 24.0886 38.5135C24.3174 39.4932 24.6221 40.4539 25 41.3874C25.0479 41.5668 25.1542 41.7257 25.3024 41.8397C25.4506 41.9536 25.6326 42.0163 25.8203 42.018H38.4714C38.7266 42.018 38.9818 41.7748 39.1094 41.3964C39.4783 40.5089 39.7354 39.5801 39.875 38.6306C42.1609 39.9136 43.9741 41.8825 45.0521 44.2523C46.143 41.8411 46.3119 39.1206 45.5275 36.5957C44.743 34.0708 43.0585 31.9129 40.7865 30.5225C40.8766 22.6826 37.9735 15.0973 32.6563 9.27928C32.5771 9.19177 32.4802 9.1217 32.3718 9.07358C32.2635 9.02547 32.1461 9.0004 32.0274 9H32.0365Z" fill="#4EA8DE"/>
<path d="M32.0273 29.6487C31.3273 29.6486 30.6429 29.4438 30.0604 29.0599C29.4779 28.676 29.0235 28.1302 28.7544 27.4914C28.4852 26.8526 28.4134 26.1494 28.548 25.4703C28.6826 24.7913 29.0176 24.1668 29.5107 23.6756C30.0039 23.1845 30.6331 22.8486 31.319 22.7103C32.005 22.5721 32.717 22.6376 33.3653 22.8987C34.0137 23.1598 34.5693 23.6048 34.9621 24.1775C35.355 24.7503 35.5675 25.4252 35.5729 26.1171V26.1171C35.5838 26.5655 35.5052 27.0117 35.3416 27.4301C35.178 27.8485 34.9326 28.2309 34.6194 28.5555C34.3063 28.8801 33.9314 29.1406 33.5164 29.3219C33.1013 29.5033 32.6542 29.6021 32.2005 29.6126C32.1432 29.6217 32.0847 29.6217 32.0273 29.6126V29.6487Z" fill="#4EA8DE"/>
<path d="M36.9584 44.2612C36.7303 44.254 36.5031 44.2919 36.29 44.3727C36.077 44.4534 35.8824 44.5754 35.7177 44.7315C35.553 44.8876 35.4215 45.0746 35.3309 45.2816C35.2403 45.4886 35.1924 45.7114 35.1901 45.9369V51.2522C35.1901 51.7158 35.3764 52.1603 35.708 52.4881C36.0396 52.8158 36.4894 53 36.9584 53C37.4273 53 37.8771 52.8158 38.2087 52.4881C38.5403 52.1603 38.7266 51.7158 38.7266 51.2522V46.009C38.7339 45.7843 38.6958 45.5605 38.6147 45.3505C38.5336 45.1405 38.4109 44.9486 38.254 44.7859C38.0971 44.6232 37.9089 44.493 37.7006 44.403C37.4922 44.3129 37.2678 44.2647 37.0404 44.2612H36.9584Z" fill="#5E60CE"/>
<path d="M27.1146 44.2613C26.8827 44.2491 26.6506 44.2833 26.4323 44.3616C26.214 44.4399 26.0138 44.5608 25.8438 44.7172C25.6737 44.8735 25.5372 45.062 25.4423 45.2716C25.3475 45.4812 25.2963 45.7074 25.2917 45.9369V51.2523C25.2917 51.7158 25.478 52.1603 25.8096 52.4881C26.1412 52.8159 26.591 53 27.0599 53C27.5289 53 27.9786 52.8159 28.3102 52.4881C28.6419 52.1603 28.8281 51.7158 28.8281 51.2523V46.009C28.8354 45.7844 28.7974 45.5605 28.7163 45.3505C28.6351 45.1405 28.5125 44.9486 28.3556 44.7859C28.1986 44.6232 28.0105 44.4931 27.8021 44.403C27.5938 44.3129 27.3693 44.2647 27.1419 44.2613H27.1146Z" fill="#5E60CE"/>
<path d="M31.8998 44.2613C31.6723 44.2565 31.4462 44.296 31.2342 44.3777C31.0222 44.4593 30.8286 44.5814 30.6644 44.737C30.5002 44.8926 30.3686 45.0787 30.2772 45.2846C30.1858 45.4905 30.1363 45.7121 30.1315 45.9369V53.2613C30.1315 53.7248 30.3178 54.1693 30.6494 54.4971C30.981 54.8249 31.4308 55.009 31.8998 55.009C32.3687 55.009 32.8185 54.8249 33.1501 54.4971C33.4817 54.1693 33.668 53.7248 33.668 53.2613V46.054C33.6753 45.8294 33.6372 45.6055 33.5561 45.3955C33.475 45.1855 33.3524 44.9936 33.1954 44.8309C33.0385 44.6683 32.8503 44.5381 32.642 44.448C32.4336 44.3579 32.2092 44.3098 31.9818 44.3063L31.8998 44.2613Z" fill="#5E60CE"/>
</g>
<defs>
<clipPath id="clip0_401_96">
<rect width="28" height="46" fill="white" transform="translate(18 9)"/>
</clipPath>
</defs>
</svg>
